<?xml version="1.0" encoding="UTF-8"?>
<svg xmlns="http://www.w3.org/2000/svg" xmlns:xlink="http://www.w3.org/1999/xlink" viewBox="0 0 16 16" version="1.1" width="512px" height="512px">
<g id="surface1">
<path style=" " d="M 4.5 2 C 3.675781 2 3 2.675781 3 3.5 L 3 7 L 4 7 L 4 3.5 C 4 3.21875 4.21875 3 4.5 3 L 9 3 L 9 6 L 12 6 L 12 12.5 C 12 12.78125 11.78125 13 11.5 13 L 8 13 L 8 14 L 11.5 14 C 12.324219 14 13 13.324219 13 12.5 L 13 5.292969 L 9.707031 2 Z M 10 3.707031 L 11.292969 5 L 10 5 Z M 3 8 L 3 9 L 5 9 C 5.558594 9 6 9.441406 6 10 C 6 10.558594 5.558594 11 5 11 C 4.441406 11 4 10.558594 4 10 L 3 10 L 3 14 L 4 14 L 4 11.582031 C 4.308594 11.777344 4.609375 12 5 12 C 6.097656 12 7 11.097656 7 10 C 7 8.902344 6.097656 8 5 8 Z "/>
</g>
</svg>
